# xmcd CD database file
#
# Track frame offsets:
#	150
#	22720
#	43465
#	72122
#	103529
#	130020
#	162897
#	198113
#	239557
#	248325
#	255856
#
# Disc length: 3645 seconds
#
# Revision: 2
# Processed by: cddbd v1.4PL0 Copyright (c) Steve Scherf et al.
# Submitted via: CDex 1.50Beta7
#
DISCID=800e3b0b
DTITLE=Rolland Hanneman - Sleep Well
DYEAR=1900
DGENRE=New Age
TTITLE0=Lazy Days
TTITLE1=Sweet Dreams
TTITLE2=Tranquil Sleep
TTITLE3=Moonbeams
TTITLE4=Beside Still Waters
TTITLE5=Pure Aromas
TTITLE6=Tranquility
TTITLE7=Soothing the Soul
TTITLE8=Peacful Slumber
TTITLE9=Serene Dreams
TTITLE10=Thoughtless Sleep
EXTD=
EXTT0=
EXTT1=
EXTT2=
EXTT3=
EXTT4=
EXTT5=
EXTT6=
EXTT7=
EXTT8=
EXTT9=
EXTT10=
PLAYORDER=
